HIERARCHY
ROOT Hips
{
  OFFSET 179.979 97.3047 303.174
  CHANNELS 6 Xposition Yposition Zposition Zrotation Xrotation Yrotation
  JOINT Spine
  {
    OFFSET 0.000859786 9.92346 -1.22733
    CHANNELS 3 Zrotation Xrotation Yrotation
    JOINT Spine1
    {
      OFFSET 0 11.732 0
      CHANNELS 3 Zrotation Xrotation Yrotation
      JOINT Spine2
      {
        OFFSET 0 13.4588 0
        CHANNELS 3 Zrotation Xrotation Yrotation
        JOINT Neck
        {
          OFFSET 2.54812e-05 15.0278 0.877907
          CHANNELS 3 Zrotation Xrotation Yrotation
          JOINT Head
          {
            OFFSET 0 10.3218 3.14243
            CHANNELS 3 Zrotation Xrotation Yrotation
            End Site
            {
              OFFSET 0 0 0
            }
          }
        }
        JOINT LeftShoulder
        {
          OFFSET 6.10582 9.10629 0.757062
          CHANNELS 3 Zrotation Xrotation Yrotation
          JOINT LeftArm
          {
            OFFSET 0 12.9223 0
            CHANNELS 3 Zrotation Xrotation Yrotation
            JOINT LeftForeArm
            {
              OFFSET 0 27.4047 0
              CHANNELS 3 Zrotation Xrotation Yrotation
              JOINT LeftHand
              {
                OFFSET -1.28204e-05 27.6145 0
                CHANNELS 3 Zrotation Xrotation Yrotation
                End Site
                {
                  OFFSET 0 0 0
                }
              }
            }
          }
        }
        JOINT RightShoulder
        {
          OFFSET -6.1057 9.10638 0.757076
          CHANNELS 3 Zrotation Xrotation Yrotation
          JOINT RightArm
          {
            OFFSET 0 12.9223 0
            CHANNELS 3 Zrotation Xrotation Yrotation
            JOINT RightForeArm
            {
              OFFSET 0 27.4047 0
              CHANNELS 3 Zrotation Xrotation Yrotation
              JOINT RightHand
              {
                OFFSET 1.28428e-05 27.6145 1.44975e-05
                CHANNELS 3 Zrotation Xrotation Yrotation
                End Site
                {
                  OFFSET 0 0 0
                }
              }
            }
          }
        }
      }
    }
  }
  JOINT LeftUpLeg
  {
    OFFSET 9.12387 -6.65719 -0.0554031
    CHANNELS 3 Zrotation Xrotation Yrotation
    JOINT LeftLeg
    {
      OFFSET 0 40.5994 0
      CHANNELS 3 Zrotation Xrotation Yrotation
      JOINT LeftFoot
      {
        OFFSET 0 42.099 0
        CHANNELS 3 Zrotation Xrotation Yrotation
        JOINT LeftToeBase
        {
          OFFSET 0 15.7216 0
          CHANNELS 3 Zrotation Xrotation Yrotation
          End Site
          {
            OFFSET 0 0 0
          }
        }
      }
    }
  }
  JOINT RightUpLeg
  {
    OFFSET -9.12503 -6.6556 -0.0553527
    CHANNELS 3 Zrotation Xrotation Yrotation
    JOINT RightLeg
    {
      OFFSET 0 40.5994 0
      CHANNELS 3 Zrotation Xrotation Yrotation
      JOINT RightFoot
      {
        OFFSET 0 42.099 0
        CHANNELS 3 Zrotation Xrotation Yrotation
        JOINT RightToeBase
        {
          OFFSET 0 15.7216 0
          CHANNELS 3 Zrotation Xrotation Yrotation
          End Site
          {
            OFFSET 0 0 0
          }
        }
      }
    }
  }
}
MOTION
Frames:	17
Frame Time:	0.0333333
186.385 92.3525 168.221 0.339367 0.326536 -12.1232 2.02113 -3.82657 -2.34122 4.18776 6.19113 -5.29379 4.81341 12.7569 -5.39476 7.02679 33.146 11.2722 -27.0904 -6.9037 20.5555 -88.6841 -7.30602 90.8201 23.7117 61.5438 39.1791 54.0388 -18.5927 -0.571115 -9.64558 0.0899652 22.4405 97.7797 -16.2876 -90.0522 -47.0374 59.3085 25.8848 -96.0384 0.335176 0.218935 -18.2763 -29.6941 -5.30688 -178.78 13.507 -16.3299 5.25996 -63.5224 0.57414 -10.0256 19.0093 -7.59075 -0.965265 26.367 -3.60229 -174.932 32.3577 9.25119 -3.74782 -44.1233 3.62569 -35.207 78.2202 29.375 0.96354 26.3682 3.55537 
185.822 89.3663 170.816 -0.38021 0.53106 -12.3209 2.13423 -3.58817 -1.98743 4.40895 6.67459 -4.62922 4.95741 13.2472 -4.72201 6.68988 35.4247 11.6339 -27.095 -5.41416 21.291 -89.3743 -7.50204 90.8667 16.2981 61.0514 40.0395 59.8499 -17.8747 -0.416481 -7.0905 0.57414 20.0728 100.736 -15.4936 -90.1689 -39.6831 59.4784 22.5555 -94.6855 0.781715 0.220308 -17.9769 -37.1166 -2.26294 -178.377 11.7811 -13.8679 4.37304 -65.7246 3.13622 -13.2769 20.2182 -6.58014 -0.965265 26.367 -3.60229 -173.819 34.5941 10.5304 -6.56264 -52.7377 1.80225 -81.9029 82.8113 75.6739 0.96354 26.3682 3.55537 
185.399 87.9745 173.203 -2.48349 -0.499518 -13.2526 2.54907 -2.94302 -1.52754 5.24999 7.96136 -3.86624 5.7108 14.5405 -3.95372 5.62533 35.9944 12.5011 -27.2136 -5.40944 21.6708 -90.2972 -9.06279 90.8022 11.6876 64.2036 37.8646 59.9316 -16.3102 -0.348716 -4.81054 1.4882 8.43274 105.307 -13.2666 -90.6703 -31.9428 55.0716 16.3871 -89.0465 0.0490978 0.301837 -16.982 -43.2996 -1.75297 -176.323 7.87356 -13.769 4.57496 -64.977 6.2835 -15.3799 18.9181 -5.34315 -0.965265 26.367 -3.60229 -174.003 33.1704 15.1778 -8.51754 -56.8873 -2.27724 -115.691 83.9342 109.566 0.96354 26.3682 3.55537 
184.848 87.3938 175.945 -2.40529 -0.414508 -12.9308 2.38194 -3.17198 -1.21797 4.88072 7.52588 -3.1817 5.25953 14.11 -3.25049 5.65056 36.3661 12.8376 -26.4704 -4.38579 22.1553 -90.5243 -9.82957 90.7451 2.98672 68.1713 45.0265 55.8094 -17.5515 -0.489933 -3.41721 -2.01161 -7.54513 105.603 -11.4842 -91.0971 -27.7433 54.9153 9.49744 -79.0065 -2.4986 0.465357 -7.0386 -36.2373 -0.424162 -175.911 6.50387 -13.6785 6.05935 -65.353 9.41582 -16.5105 21.0562 -4.17356 -0.965265 26.367 -3.60229 -177.114 31.8618 20.4198 -8.88528 -59.3658 -5.09597 -147.059 82.9455 140.622 0.96354 26.3682 3.55537 
183.998 87.9195 178.435 -2.96118 -0.0573745 -10.4897 2.24076 -3.61175 -0.982897 4.56333 6.66272 -2.64679 4.87759 13.2501 -2.69896 6.67917 35.9288 12.1114 -27.4955 -5.17936 21.961 -90.8407 -10.3141 90.719 -3.75487 68.9263 55.7516 50.5874 -19.2114 -0.663496 -4.32143 -8.80877 -16.0911 106.735 -11.3416 -91.1691 -24.764 54.8372 0.489842 -71.6998 -5.32634 0.599601 8.35575 -22.1034 1.52734 -173.202 6.55532 -13.1567 5.12173 -67.8176 7.95723 -13.9662 26.2455 -2.87959 -0.965265 26.367 -3.60229 -178.334 28.8463 22.7862 -5.30887 -58.1692 -2.61451 -156.157 81.8768 150.32 0.96354 26.3682 3.55537 
183.165 89.2976 180.741 -3.36058 0.0962716 -8.29762 2.05731 -3.89053 -0.455315 4.15575 6.13185 -1.52304 4.33673 12.724 -1.55067 5.3421 32.7776 13.8315 -26.8195 -6.0567 22.4151 -90.8943 -11.88 90.5635 -8.43908 67.8423 63.8259 46.3427 -19.6678 -0.754605 -5.5824 -16.094 -6.4646 106.461 -10.914 -91.264 -18.6472 56.8677 -8.97924 -70.0967 -5.26207 0.604591 7.43317 -10.1767 -14.8988 -169.74 8.26882 -15.0813 5.80925 -73.064 7.80287 -8.54574 38.2363 -0.315525 -0.965265 26.367 -3.60229 -177.958 24.8343 24.6346 -4.96402 -54.0314 -2.75498 -160.084 82.3043 155.684 0.96354 26.3682 3.55537 
182.425 91.0047 182.884 -3.24221 0.038416 -6.90027 1.65884 -4.03195 0.311866 3.31211 5.88166 0.136612 3.29713 12.4762 0.140691 2.21318 29.3219 16.4434 -26.0483 -8.31161 22.6352 -90.7899 -13.8419 90.3597 -12.8876 64.7408 66.6092 43.7949 -18.4198 -0.733861 -2.55431 -17.7929 2.27705 106.706 -9.70092 -91.5707 -10.0127 57.0681 -17.1745 -74.7936 -4.29937 0.549787 0.0549681 0.906412 -25.2397 -166.673 11.0109 -18.6789 10.7368 -79.4923 8.95134 1.77115 49.9974 -1.45593 -0.965265 26.367 -3.60229 -177.102 20.7879 25.4275 -5.92861 -48.9605 -3.87192 -162.579 83.9165 160.153 0.96354 26.3682 3.55537 
181.824 92.9588 184.823 -2.46354 1.04297 -4.46546 1.03734 -4.4184 0.894738 2.03622 5.12355 1.49405 1.86169 11.7158 1.52081 -0.886285 26.4657 18.9619 -25.7083 -9.24931 23.3114 -90.9365 -15.3508 90.2089 -18.1011 59.8989 66.3761 42.8845 -17.9779 -0.725808 0.547944 -15.116 3.94392 106.394 -8.47025 -91.852 -5.76915 56.3352 -18.6896 -79.7056 -2.47874 0.459729 -4.66486 11.8035 -14.059 -164.669 17.028 -21.6625 38.4564 -85.2213 30.7854 11.7536 54.5418 -8.02363 -0.965265 26.367 -3.60229 -177.172 18.4624 25.7025 -6.10827 -44.2322 -4.17733 -160.286 87.2652 160.47 0.96354 26.3682 3.55537 
181.33 94.6998 186.614 -1.20857 2.84117 -1.08501 0.205428 -4.87058 1.33366 0.35858 4.21216 2.61286 0.05358 10.7997 2.65325 -4.10304 23.475 20.8724 -23.9429 -9.50368 23.3846 -90.7498 -17.2397 90.0119 -22.7753 53.8262 63.4863 47.4043 -18.2662 -0.674002 2.66554 -12.6831 7.01372 104.791 -8.2575 -91.803 -3.41179 57.3468 -17.0255 -84.796 -0.651933 0.362417 -7.25297 13.6109 -7.453 -163.798 25.6343 -22.474 123.734 -85.9762 113.196 16.7701 55.2048 -11.5782 -0.965265 26.367 -3.60229 -178.547 17.7087 27.1074 -6.54442 -40.8818 -5.19608 32.012 88.8849 -28.7409 0.96354 26.3682 3.55537 
180.847 96.1 188.464 -1.14995 4.21418 2.60066 -0.415747 -5.08729 1.84987 -0.895442 3.75953 3.81743 -1.34078 10.3392 3.87214 -6.42494 21.2358 21.4321 -19.9729 -9.68631 22.3326 -90.4692 -18.5462 89.8797 -27.0933 47.7545 57.1152 55.8261 -17.3625 -0.481706 4.45606 -11.4023 9.64719 101.613 -8.4553 -91.5673 -0.906525 59.2782 -14.1044 -89.1801 -0.348945 0.312929 -7.91011 8.19461 -13.4054 -162.036 34.557 -21.9015 156.168 -81.7356 147.325 18.0081 58.1879 -10.8659 -0.965265 26.367 -3.60229 -179.033 16.5542 27.2815 -6.26356 -38.1819 -5.95503 33.3112 85.0979 -25.8062 0.96354 26.3682 3.55537 
180.52 96.7766 190.378 -1.849 5.60584 6.10143 -0.889268 -5.20448 2.47703 -1.85629 3.49655 5.20054 -2.46253 10.0635 5.27176 -6.975 18.9482 20.6191 -15.8014 -9.02755 20.7769 -90.4392 -19.1883 89.8153 -32.5246 42.6032 44.7367 68.0631 -12.3366 0.00645474 5.04132 -7.46962 12.0432 98.3597 -9.33208 -91.2272 0.755559 59.7178 -10.1571 -90.8998 -0.667626 0.30562 -11.0027 -0.358791 -25.553 -159.708 43.7927 -20.8707 165.675 -78.4448 159.528 17.0942 62.1695 -9.30693 -0.965265 26.367 -3.60229 -178.482 16.4082 24.8488 -6.81802 -37.2723 -7.66326 40.4644 82.2555 -28.9532 0.96354 26.3682 3.55537 
180.209 96.6288 192.303 -2.21511 6.84061 9.17193 -1.50224 -5.09009 3.22076 -3.1103 3.67124 6.85929 -3.90988 10.2179 6.95513 -5.7787 17.3752 18.5667 -11.9458 -10.8786 18.4763 -90.1526 -19.5338 89.7858 -39.2013 40.9397 27.4113 81.3712 -2.82574 0.70533 6.19378 -6.15056 12.7564 96.2015 -10.0136 -91.016 3.5553 56.0921 -6.02309 -90.4982 -0.922295 0.317645 -16.1081 -7.6776 -31.007 -158.907 52.297 -19.3852 168.616 -77.8576 164.677 16.8282 66.5616 -8.29464 -0.965265 26.367 -3.60229 -177.845 17.3739 18.0129 -5.90313 -39.3542 -7.77155 44.2325 81.9509 -31.8382 0.96354 26.3682 3.55537 
179.806 95.6106 194.227 -2.40135 7.38643 12.3172 -2.12441 -4.61562 3.81749 -4.41088 4.54983 8.2445 -5.37387 11.0751 8.37411 -3.09183 14.6968 15.3392 -8.56066 -12.7737 15.6928 -90.2765 -20.0798 89.7289 -45.1012 43.1004 15.0623 94.3624 1.61555 1.26517 4.18337 -7.72934 -1.81477 94.4664 -9.80342 -90.9663 7.79004 50.3631 -2.78554 -87.6392 -0.737396 0.339629 -15.7261 -13.2865 -21.596 -161.294 58.8059 -14.5665 168.783 -81.3765 166.296 15.306 71.9558 -8.66399 -0.965265 26.367 -3.60229 -177.003 18.9374 12.3165 -5.6992 -44.2151 -7.88728 52.8428 83.662 -41.3726 0.96354 26.3682 3.55537 
179.416 94.2731 195.967 -2.44305 7.03078 16.1555 -2.6425 -3.78442 4.17538 -5.54075 6.14452 9.15431 -6.61543 12.6535 9.32819 -1.98581 12.9546 11.8082 -3.4719 -16.6789 11.831 -91.0361 -22.3325 89.4677 -46.6433 50.682 -0.385747 108.808 6.61975 1.93233 -0.783557 -2.54026 -35.0648 93.6717 -8.5751 -91.0831 13.8793 44.595 -0.155104 -82.2662 -0.281664 0.37182 -10.6619 -13.8423 2.49051 -168.839 61.2597 -5.05014 10.6402 -88.7648 8.49394 19.0384 76.192 -11.9382 -0.965265 26.367 -3.60229 -175.744 20.0931 11.1301 -7.35912 -49.7352 -5.37433 36.0785 87.7626 -27.0235 0.96354 26.3682 3.55537 
178.951 92.5131 198.013 -3.26084 6.07698 21.2967 -2.82106 -3.07591 4.33321 -5.9808 7.53137 9.56978 -7.11021 14.0322 9.7793 -1.14188 13.5788 7.78542 2.79512 -21.0385 7.6506 -93.5067 -25.1033 88.9351 -36.7584 60.3235 -21.1124 121.126 7.98678 2.42889 -2.337 0.536675 -59.944 93.6063 -6.99501 -91.2755 21.1721 41.452 -2.26859 -73.0564 -3.48923 0.533054 -3.65219 -11.2698 27.3779 -176.226 58.1993 2.72646 -0.860035 -71.8576 -3.28978 23.8374 77.4197 -15.4923 -0.965265 26.367 -3.60229 -173.89 19.611 14.2554 -7.82533 -51.2665 -0.272734 -88.5262 86.3608 93.5985 0.96354 26.3682 3.55537 
178.779 89.5332 200.798 -4.78988 6.00966 26.9671 -2.89457 -3.0959 4.36149 -6.12836 7.48224 9.64755 -7.26665 13.9815 9.85775 1.26093 14.7253 2.54658 8.58518 -22.6298 3.03943 -96.6056 -27.1442 88.3 -12.281 66.7628 -53.796 128.095 8.44261 2.69679 2.43029 0.609409 -69.4718 95.0282 -6.88879 -91.3916 26.4729 41.5079 -7.23036 -60.8464 -8.89663 0.75381 6.3515 -17.8631 40.9932 179.672 51.7871 1.10781 1.84775 -49.2911 -0.348755 18.9184 73.2208 -8.60426 -0.965265 26.367 -3.60229 -172.458 17.5907 21.291 -7.5426 -50.9878 1.67941 -143.732 80.2084 145.396 0.96354 26.3682 3.55537 
178.101 88.2387 203.149 -4.17896 8.83073 33.4473 -3.59822 -3.43006 3.9514 -7.48237 6.76787 9.01358 -8.5431 13.2795 9.19587 3.30607 13.6137 -2.75234 13.1462 -21.8501 -1.94687 -100.573 -29.3349 87.3809 21.7945 66.5624 -88.5087 130.611 7.62724 2.75913 5.89238 0.00773053 -64.62 96.6999 -6.9734 -91.5007 29.023 44.4995 -13.5302 -46.0962 -15.1048 0.966661 19.0052 -24.2423 54.0122 173.932 53.0581 -1.46416 5.14156 -44.1837 7.00897 4.64149 64.6096 5.00081 -0.965265 26.367 -3.60229 -174.145 16.5242 29.4685 -9.78825 -47.9192 -0.781989 -160.426 74.8216 163.221 0.96354 26.3682 3.55537 
